<?xml version="1.0" standalone="no"?><!DOCTYPE svg PUBLIC "-//W3C//DTD SVG 1.1//EN" "http://www.w3.org/Graphics/SVG/1.1/DTD/svg11.dtd"><svg t="1510558858451" class="icon" style="" viewBox="0 0 1024 1024" version="1.1" xmlns="http://www.w3.org/2000/svg" p-id="6080" xmlns:xlink="http://www.w3.org/1999/xlink" width="200" height="200"><defs><style type="text/css"></style></defs><path d="M752.961492 942.423053c-9.69071 0-20.996197-3.229554-30.685883-8.074909l-209.966059-104.980983-211.57572 104.980983c-20.996197 11.304464-48.452525 9.689686-67.833944-4.846378-19.380396-14.544251-30.686906-40.386826-25.841552-64.602344l43.607171-226.110761L84.313779 483.733213c-17.765619-17.770735-24.225751-45.221948-17.765619-67.833945 8.075933-24.228821 27.456329-41.992393 53.29788-45.221947l230.956116-41.992393L454.167339 118.725008c11.310603-22.610974 33.921577-37.149085 58.143234-37.149084 24.226774 0 48.457642 14.538111 58.148352 37.149084l103.365182 209.95992 230.956116 40.379662c24.225751 3.230578 45.221948 20.999266 51.68208 45.225018 8.075933 24.225751 1.6158 50.067302-16.149819 67.833944L773.958712 638.788661l41.99137 226.110761c4.845355 25.840528-6.460132 50.068326-25.841552 64.602344-9.689686 8.076956-22.60995 12.921287-37.147038 12.921287z" p-id="6081" fill="#ffffff"></path></svg>