<?xml version="1.0" standalone="no"?><!DOCTYPE svg PUBLIC "-//W3C//DTD SVG 1.1//EN" "http://www.w3.org/Graphics/SVG/1.1/DTD/svg11.dtd"><svg t="1510552368845" class="icon" style="" viewBox="0 0 1024 1024" version="1.1" xmlns="http://www.w3.org/2000/svg" p-id="2517" xmlns:xlink="http://www.w3.org/1999/xlink" width="200" height="200"><defs><style type="text/css"></style></defs><path d="M327.728 804.301l150.605-60.966 33.721-13.628 33.721 13.628 150.61 60.914-4.485-166.562-0.907-32.986 20.663-25.711 96.564-120.353-155.377-47.062-30.031-9.082-17.826-25.717-92.932-134.033-92.87 134.033-17.827 25.717-30.033 9.082-155.49 47.12L312.4 578.99l20.664 25.711-0.908 32.986-4.428 166.614M789.94 939.13L512.054 826.727l-277.88 112.402 8.115-303.886L62.39 411.176l282.88-85.667 166.784-240.64 166.844 240.64 282.712 85.667-179.844 224.068 8.174 303.885z" fill="#ffffff" p-id="2518"></path></svg>