<?xml version="1.0" standalone="no"?><!DOCTYPE svg PUBLIC "-//W3C//DTD SVG 1.1//EN" "http://www.w3.org/Graphics/SVG/1.1/DTD/svg11.dtd"><svg t="1511399924383" class="icon" style="" viewBox="0 0 1024 1024" version="1.1" xmlns="http://www.w3.org/2000/svg" p-id="3686" xmlns:xlink="http://www.w3.org/1999/xlink" width="200" height="200"><defs><style type="text/css"></style></defs><path d="M599.996658 961.992761 419.590845 961.992761c-169.645748 0-303.644625 0-303.644625-86.172615l0-17.742083c0-164.895561 136.216381-299.032584 303.644625-299.032584l180.405813 0c167.416987 0 303.622112 134.137023 303.622112 299.032584l0 17.742083C903.61877 961.992761 762.907005 961.992761 599.996658 961.992761zM419.590845 607.106078c-140.933823 0-255.584026 112.574938-255.584026 250.973008l0 17.742083c0 38.109969 141.719722 38.109969 255.584026 38.109969l180.405813 0c95.583962 0 255.56049 0 255.56049-38.109969l0-17.742083c0-138.39807-114.6369-250.973008-255.56049-250.973008L419.590845 607.106078zM500.776889 536.106024c-132.614343 0-240.495376-106.295931-240.495376-236.951667l0 0 0 0c-0.011256-63.362096 25.051559-122.911354 70.567195-167.67486 45.409213-44.670385 105.755626-69.264527 169.928181-69.264527 132.614343 0 240.49333 106.295931 240.49333 236.939387C741.270219 429.809069 633.391233 536.106024 500.776889 536.106024zM284.312836 299.154357l24.030299 0c0 104.148012 86.325088 188.889021 192.433754 188.889021 106.096387 0 192.432731-84.74101 192.432731-188.889021 0-104.149035-86.336344-188.878788-192.432731-188.878788-51.487651 0-99.866499 19.700691-136.217405 55.466266-36.256762 35.658128-56.216349 83.039251-56.216349 133.412522L284.312836 299.154357z" p-id="3687" fill="#fafafa"></path></svg>