<?xml version="1.0" encoding="UTF-8" standalone="no"?>
<svg width="30px" height="30px" viewBox="0 0 30 30" version="1.1" xmlns="http://www.w3.org/2000/svg" xmlns:xlink="http://www.w3.org/1999/xlink">
    <!-- Generator: Sketch 45.1 (43504) - http://www.bohemiancoding.com/sketch -->
    <title>wx</title>
    <desc>Created with Sketch.</desc>
    <defs></defs>
    <g id="注册登录" stroke="none" stroke-width="1" fill="none" fill-rule="evenodd">
        <g transform="translate(-694.000000, -595.000000)" id="wx" fill="#DDDDDD">
            <g transform="translate(694.000000, 595.000000)">
                <path d="M20.3611968,10.7130005 C20.670152,10.7159391 20.9787625,10.7344558 21.2858526,10.7684799 C20.4555117,6.88492584 16.3204513,4 11.6003921,4 C6.32307371,4 2.00061644,7.61232168 2.00061644,12.198614 C2.00061644,14.8492938 3.4387643,17.0253169 5.8416363,18.7081903 L4.88184366,21.6116093 L8.23772748,19.9225715 C9.33929834,20.1970352 10.4660458,20.3581466 11.6003921,20.4033925 C11.9012134,20.4033925 12.1997745,20.3910637 12.4960753,20.3664062 C12.3022211,19.7098417 12.2025964,19.029073 12.2001855,18.3444924 C12.199569,14.1342267 15.8007948,10.7130005 20.3611968,10.7130005 Z M15.1991522,8.09930702 C15.8647296,8.09930702 16.4042868,8.63886417 16.4042868,9.30444164 C16.4042868,9.97001912 15.8647296,10.5095763 15.1991522,10.5095763 C14.7173979,10.5957079 14.2306343,10.3866561 13.9613832,9.97798788 C13.6921321,9.56931963 13.6921321,9.03956366 13.9613832,8.6308954 C14.2306343,8.22222715 14.7173979,8.01317534 15.1991522,8.09930702 L15.1991522,8.09930702 Z M8.47998728,10.5095763 C7.99741759,10.5972454 7.50907985,10.3885937 7.23885604,9.97927902 C6.96863224,9.56996438 6.96863224,9.03891891 7.23885604,8.62960427 C7.50907985,8.22028963 7.99741759,8.01163792 8.47998728,8.09930702 C9.14556467,8.0989667 9.68539767,8.63824782 9.68573812,9.30382521 C9.68607857,9.96940259 9.14679754,10.5092357 8.48122016,10.5095763 L8.47998728,10.5095763 Z M29.1232344,18.2273693 C29.1232344,14.3746372 25.282831,11.2308077 20.9690039,11.2308077 C16.401821,11.2308077 12.8042939,14.3746372 12.8042939,18.2273693 C12.8042939,22.0924302 16.401821,25.2300953 20.9690039,25.2300953 C21.9453706,25.184881 22.9126436,25.0213575 23.8496146,24.74311 L26.4824177,26.1917373 L25.7605698,23.781468 C27.6869359,22.3328407 29.1232344,20.4033925 29.1232344,18.2273693 Z M18.3220228,17.0253169 C17.7892203,17.0253169 17.3572986,16.5933952 17.3572986,16.0605928 C17.3572986,15.5277903 17.7892203,15.0958686 18.3220228,15.0958686 C18.7153359,15.0123541 19.1199709,15.1759536 19.3447179,15.5093584 C19.5694648,15.8427631 19.5693253,16.2792196 19.3443654,16.6124807 C19.1194055,16.9457418 18.714666,17.1090827 18.3214063,17.0253169 L18.3220228,17.0253169 Z M23.6024234,17.0253169 C23.0696209,17.0253169 22.6376992,16.5933952 22.6376992,16.0605928 C22.6376992,15.5277903 23.0696209,15.0958686 23.6024234,15.0958686 C23.9957365,15.0123541 24.4003715,15.1759536 24.6251184,15.5093584 C24.8498654,15.8427631 24.8497259,16.2792196 24.624766,16.6124807 C24.3998061,16.9457418 23.9950666,17.1090827 23.6018069,17.0253169 L23.6024234,17.0253169 Z" id="形状_2"></path>
            </g>
        </g>
    </g>
</svg>