<?xml version="1.0" encoding="UTF-8" standalone="no"?>
<svg width="30px" height="30px" viewBox="0 0 30 30" version="1.1" xmlns="http://www.w3.org/2000/svg" xmlns:xlink="http://www.w3.org/1999/xlink">
    <!-- Generator: Sketch 45.1 (43504) - http://www.bohemiancoding.com/sketch -->
    <title>xl</title>
    <desc>Created with Sketch.</desc>
    <defs></defs>
    <g id="注册登录" stroke="none" stroke-width="1" fill="none" fill-rule="evenodd">
        <g transform="translate(-791.000000, -595.000000)" id="xl" fill="#DDDDDD">
            <g transform="translate(791.000000, 595.000000)">
                <path d="M21.392948,15.3033862 C20.4059085,15.1190596 20.8845632,14.6017557 20.8845632,14.6017557 C20.8845632,14.6017557 21.8513863,13.0557902 20.6936959,11.9319922 C19.2601102,10.5406233 15.7745526,12.1103729 15.7745526,12.1103729 C14.4438331,12.5147023 14.7964321,11.9260462 14.984921,10.9330607 C14.984921,9.76169451 14.5686995,7.78166946 11.0254655,8.95303563 C7.48223151,10.1244018 4.44143629,14.2509405 4.44143629,14.2509405 C2.32703116,16.9920562 2.60649416,19.1088398 2.60649416,19.1088398 C3.13569004,23.7764664 8.25164665,25.060807 12.2313186,25.364054 C16.4185067,25.6851392 22.0696052,23.9667391 23.7826539,20.4348025 C25.4957026,16.9028659 22.3841497,15.4936589 21.392948,15.3033862 Z M12.5422955,24.0499834 C8.38602673,24.240256 5.02593017,22.2186088 5.02593017,19.5250613 C5.02593017,16.8315137 8.38602673,14.667162 12.5422955,14.4828353 C16.6985643,14.2985087 20.0687691,15.9574486 20.0687691,18.6509961 C20.0687691,21.3445437 16.7021319,23.8656567 12.5422955,24.0499834 Z M11.7134202,16.2547496 C7.53277269,16.7304313 8.01558961,20.5299388 8.01558961,20.5299388 C8.02562359,21.2967229 8.45652945,21.9958597 9.1370092,22.3494213 C11.2063349,23.5380867 13.8292382,23.0804727 15.3737908,21.2612994 C16.6474285,19.6677658 15.9000137,15.7850139 11.7134202,16.2547496 L11.7134202,16.2547496 Z M10.6591906,21.5883306 C9.87847804,21.6775209 9.249389,21.2434614 9.249389,20.6072371 C9.29617801,19.8827635 9.86567421,19.301387 10.5890276,19.2396522 C11.485093,19.1564079 12.0689922,19.6558737 12.0689922,20.292098 C11.9770783,21.0096618 11.3819326,21.5568645 10.6591906,21.5883306 L10.6591906,21.5883306 Z M13.1232218,19.5547914 C13.0202129,19.6483964 12.882713,19.6945886 12.744083,19.6821605 C12.605453,19.6697324 12.4783618,19.5998197 12.393645,19.4893851 C12.2426873,19.2245938 12.3203012,18.8882671 12.5720256,18.7164024 C12.678543,18.6123025 12.825074,18.5596842 12.9734824,18.5722418 C13.1218907,18.5847994 13.2574971,18.661291 13.3450084,18.7818086 C13.4697355,19.0590598 13.3759726,19.3858473 13.1232218,19.5547914 L13.1232218,19.5547914 Z M20.0860126,4.59460212 C19.7187602,4.58196638 19.3738658,4.77068338 19.1864947,5.08679425 C18.9991237,5.40290512 18.9991237,5.79605426 19.1864947,6.11216514 C19.3738658,6.42827601 19.7187602,6.616993 20.0860126,6.60435727 C23.0284579,6.56397397 25.4486589,8.91236681 25.4968918,11.854694 C25.4968741,12.1778952 25.4666157,12.5003858 25.4065123,12.8179494 L25.418999,12.8179494 C25.4126683,12.8553207 25.4086965,12.8930534 25.4071069,12.9309238 C25.4224292,13.4420975 25.8085258,13.8655828 26.3161114,13.9279544 C26.823697,13.9903259 27.3008342,13.6729138 27.4394569,13.1806567 L27.4394569,13.1806567 C27.4391639,13.1786855 27.4391639,13.1766818 27.4394569,13.1747107 C27.4601275,13.0990918 27.4713126,13.0211957 27.4727547,12.9428158 C27.5310809,12.5829956 27.5614962,12.219204 27.5637288,11.854694 C27.4972406,7.78772294 24.1531735,4.54097849 20.0860126,4.59460212 L20.0860126,4.59460212 Z M20.0860126,7.83518365 C19.7800294,7.82363712 19.4922158,7.98029294 19.3357936,8.24352493 C19.1793713,8.50675693 19.1793713,8.83444232 19.3357936,9.09767431 C19.4922158,9.36090631 19.7800294,9.51756213 20.0860126,9.5060156 C21.4021594,9.48781465 22.4845875,10.5385866 22.5054486,11.854694 C22.5053309,11.9560709 22.4989764,12.0573445 22.4864213,12.157941 L22.5060432,12.157941 C22.4977895,12.1912799 22.4912404,12.2250178 22.4864213,12.2590234 C22.4979336,12.7020155 22.8457718,13.0629139 23.288039,13.0907392 C23.7303063,13.1185645 24.1206345,12.8041078 24.187578,12.3660518 L24.196497,12.3660518 C24.196497,12.3482137 24.196497,12.3244296 24.2000646,12.3065916 C24.2036322,12.2887535 24.2107674,12.2768615 24.2107674,12.2590234 C24.2096432,12.2509613 24.2078532,12.243006 24.205416,12.2352393 C24.2201464,12.1088926 24.2284814,11.9818821 24.2303893,11.854694 C24.1932401,9.60145313 22.3393355,7.80340514 20.0860126,7.83518365 Z" id="形状_3"></path>
            </g>
        </g>
    </g>
</svg>