<?xml version="1.0" standalone="no"?><!DOCTYPE svg PUBLIC "-//W3C//DTD SVG 1.1//EN" "http://www.w3.org/Graphics/SVG/1.1/DTD/svg11.dtd"><svg t="1509949221223" class="icon" style="" viewBox="0 0 1024 1024" version="1.1" xmlns="http://www.w3.org/2000/svg" p-id="11025" xmlns:xlink="http://www.w3.org/1999/xlink" width="200" height="200"><defs><style type="text/css"></style></defs><path d="M925.96224 551.50592v-457.5232a38.35392 38.35392 0 0 0-18.3296-32.55296c-11.12576-6.79424-25.74848-7.31136-37.34016-1.31584-40.0128 20.74624-79.33952 37.91872-155.53536 37.91872-83.65568 0-122.94656-20.69504-168.44288-44.65152C498.59072 28.30848 444.73344 0 342.38464 0 265.3184 0 218.32192 16.03584 185.96864 30.0032l-10.27072 4.43392-4.1472-10.38848C165.71392 9.44128 151.8336 0 136.18176 0c-21.03296 0-38.144 17.11104-38.144 38.144v947.72224c0 21.02784 17.11104 38.13376 38.144 38.13376 21.02784 0 38.13888-17.1008 38.13888-38.13376v-407.67488l5.83168-3.05664c44.67712-23.41888 84.99712-41.33376 162.2272-41.33376 83.57376 0 122.84928 20.64896 168.32512 44.56448 47.60576 25.09312 101.4784 53.48352 204.05248 53.48352 92.97408 0 145.14688-22.92736 190.60224-46.40256a38.08256 38.08256 0 0 0 20.60288-33.94048z m-76.27776-23.55712l-6.4768 2.87232c-27.60704 12.2368-64.4608 24.73984-128.4608 24.73984-83.6608 0-122.95168-20.70016-168.448-44.65664-47.70304-25.07264-101.56544-53.38112-203.93472-53.38112-59.03872 0-106.20928 8.78592-152.94976 28.47744l-15.10912 6.36416v-371.7632l5.83168-3.05664c44.66176-23.37792 84.97152-41.26208 162.2272-41.26208 83.57888 0 122.8544 20.64896 168.32512 44.55424 47.7184 25.12384 101.59104 53.48864 204.05248 53.48864 45.36832 0 84.88448-5.4528 120.8064-16.67584l14.12096-4.40832v374.71232h0.01536v-0.00512z" p-id="11026" fill="#707070"></path></svg>