<?xml version="1.0" standalone="no"?><!DOCTYPE svg PUBLIC "-//W3C//DTD SVG 1.1//EN" "http://www.w3.org/Graphics/SVG/1.1/DTD/svg11.dtd"><svg t="1509948691349" class="icon" style="" viewBox="0 0 1024 1024" version="1.1" xmlns="http://www.w3.org/2000/svg" p-id="7202" xmlns:xlink="http://www.w3.org/1999/xlink" width="200" height="200"><defs><style type="text/css"></style></defs><path d="M964.341 2.411h-906.551c-31.163 0-56.659 25.497-56.659 56.659v906.553c0 31.163 25.497 56.659 56.659 56.659h906.553c31.163 0 56.659-25.497 56.659-56.659v-906.553c-0.001-31.163-25.497-56.659-56.66-56.659zM964.341 965.622h-906.551v-906.553h906.553v906.553zM298.593 314.038h-113.318v-56.659h113.318v56.659zM836.859 314.038h-481.606v-56.659h481.606v56.659zM298.593 540.676h-113.318v-56.659h113.318v56.659zM836.859 540.676h-481.606v-56.659h481.606v56.659zM298.593 767.315h-113.318v-56.659h113.318v56.659zM836.859 767.315h-481.606v-56.659h481.606v56.659z" p-id="7203" fill="#707070"></path></svg>