<?xml version="1.0" standalone="no"?><!DOCTYPE svg PUBLIC "-//W3C//DTD SVG 1.1//EN" "http://www.w3.org/Graphics/SVG/1.1/DTD/svg11.dtd"><svg t="1510218711149" class="icon" style="" viewBox="0 0 1024 1024" version="1.1" xmlns="http://www.w3.org/2000/svg" p-id="16373" xmlns:xlink="http://www.w3.org/1999/xlink" width="200" height="200"><defs><style type="text/css"></style></defs><path d="M422.4 422.4c25.6 0 44.8-19.2 44.8-44.8 0-25.6-19.2-44.8-44.8-44.8-25.6 0-44.8 19.2-44.8 44.8C377.6 403.2 396.8 422.4 422.4 422.4zM601.6 422.4c25.6 0 44.8-19.2 44.8-44.8 0-25.6-19.2-44.8-44.8-44.8-25.6 0-44.8 19.2-44.8 44.8C556.8 403.2 576 422.4 601.6 422.4zM336 713.6c22.4 3.2 76.8 6.4 102.4 6.4 214.4 0 361.6-160 361.6-348.8C796.8 185.6 617.6 32 438.4 32 220.8 32 48 185.6 48 374.4c0 108.8 41.6 201.6 118.4 268.8l0 169.6L336 713.6zM105.6 377.6c0-156.8 144-284.8 329.6-284.8 150.4 0 300.8 128 300.8 284.8 0 156.8-118.4 284.8-300.8 284.8-25.6 0-83.2-3.2-108.8-9.6l-102.4 67.2 0-105.6C153.6 556.8 105.6 476.8 105.6 377.6zM854.4 307.2c0 9.6 0 16 0 25.6 0 19.2-3.2 38.4-3.2 57.6 41.6 48 64 105.6 64 169.6 0 99.2-60.8 188.8-150.4 240l0 105.6-102.4-67.2c-25.6 6.4-51.2 9.6-76.8 9.6-76.8 0-118.4-22.4-176-60.8-16 0-32 3.2-51.2 3.2-12.8 0-22.4 0-35.2 0 70.4 70.4 144 115.2 259.2 115.2 25.6 0 48-3.2 70.4-6.4l169.6 102.4 0-169.6c89.6-64 150.4-160 150.4-268.8C976 454.4 931.2 368 854.4 307.2zM243.2 422.4c25.6 0 44.8-19.2 44.8-44.8 0-25.6-19.2-44.8-44.8-44.8S198.4 352 198.4 377.6C198.4 403.2 217.6 422.4 243.2 422.4z" p-id="16374" fill="#bfbfbf"></path></svg>