<?xml version="1.0" standalone="no"?><!DOCTYPE svg PUBLIC "-//W3C//DTD SVG 1.1//EN" "http://www.w3.org/Graphics/SVG/1.1/DTD/svg11.dtd"><svg t="1510218908998" class="icon" style="" viewBox="0 0 1024 1024" version="1.1" xmlns="http://www.w3.org/2000/svg" p-id="17200" xmlns:xlink="http://www.w3.org/1999/xlink" width="200" height="200"><defs><style type="text/css"></style></defs><path d="M768.127936 579.806097c56.291854-61.409295 90.066967-143.288356 90.066967-233.355322 0-191.392304-155.058471-346.450775-346.450775-346.450775s-346.450775 155.058471-346.450775 346.450775c0 89.555222 34.286857 171.434283 90.066967 233.355322-153.011494 88.531734-255.36032 253.825087-255.36032 443.170415v1.023488h63.968016v-1.023488c0-60.385807 11.770115-119.236382 35.310345-174.504748 22.516742-53.221389 54.756622-101.325337 95.696152-142.264867 32.751624-32.751624 70.108946-59.874063 110.536731-80.855573 57.315342 42.474763 128.95952 68.061969 206.232884 68.061969 77.273363 0 148.405797-25.075462 206.232883-68.061969 40.93953 20.981509 77.785107 48.103948 110.536732 80.855573 40.93953 40.93953 73.17941 89.043478 95.696152 142.264867 23.54023 55.268366 35.310345 113.607196 35.310345 174.504748v1.023488h63.968016v-1.023488c0-189.345327-102.86057-354.638681-255.36032-443.170415z m-256.383808 49.127436c-38.38081 0-75.226387-7.164418-110.024988-22.004997-33.775112-14.328836-63.968016-34.798601-90.066966-60.385807-26.098951-26.098951-46.568716-56.291854-60.385807-90.066967-14.84058-34.798601-22.004998-71.644178-22.004998-110.024987s7.164418-75.226387 22.004998-110.024988c14.328836-33.775112 34.798601-63.968016 60.385807-90.066966 26.098951-26.098951 56.291854-46.568716 90.066966-60.385808 34.798601-14.84058 71.644178-22.004998 110.024988-22.004997s75.226387 7.164418 110.024987 22.004997c33.775112 14.328836 63.968016 34.798601 90.066967 60.385808 26.098951 26.098951 46.568716 56.291854 60.385807 90.066966 14.84058 34.798601 22.004998 71.644178 22.004998 110.024988s-7.164418 75.226387-22.004998 110.024987c-14.328836 33.775112-34.798601 63.968016-60.385807 90.066967-26.098951 26.098951-56.291854 46.568716-90.066967 60.385807-34.798601 14.84058-72.155922 22.004998-110.024987 22.004997z" p-id="17201" fill="#515151"></path></svg>