<?xml version="1.0" standalone="no"?><!DOCTYPE svg PUBLIC "-//W3C//DTD SVG 1.1//EN" "http://www.w3.org/Graphics/SVG/1.1/DTD/svg11.dtd"><svg t="1509949781343" class="icon" style="" viewBox="0 0 1024 1024" version="1.1" xmlns="http://www.w3.org/2000/svg" p-id="14155" xmlns:xlink="http://www.w3.org/1999/xlink" width="200" height="200"><defs><style type="text/css"></style></defs><path d="M790.120729 1010.862626 233.902962 1010.862626c-65.306166 0-92.496796-46.855946-97.780451-71.629766-2.888738-16.248698-67.333756-377.445605-80.680336-476.5567-4.865244-36.214441 1.919339-65.124936 20.101971-85.934799 17.28986-19.737077 44.566848-30.621844 76.813683-30.621844 7.453553 0 13.374555 0.582613 16.600211 0.997375l686.108827 0c3.22444-0.418411 9.145442-0.997375 16.595346-0.997375 32.2517 0 59.523824 10.884766 76.789357 30.635223 18.21304 20.796484 24.968431 49.706978 20.103187 85.92142-13.318605 99.0965-77.763622 460.306786-80.485726 475.639601C882.617526 964.00668 855.428111 1010.862626 790.120729 1010.862626L790.120729 1010.862626zM152.357829 403.053815c-9.032325 0-25.437927 1.463222-33.943589 11.175465-8.618779 9.844821-8.314701 27.651612-6.532806 40.869263 13.15197 97.889919 79.454295 469.46804 80.124482 473.20698 1.330644 4.92241 9.146658 25.619157 41.897046 25.619157l556.217767 0c36.033211 0 41.844745-25.452522 42.062464-26.535039 0.503553-2.821841 66.807094-374.399962 79.929872-472.289881 1.781895-13.217651 2.085973-31.024443-6.503614-40.869263-8.510528-9.715892-24.911264-11.175465-33.948454-11.175465-5.421098 0-9.25491 0.513283-10.005374 0.627616-1.472953 0.232315-3.113756 0.37584-4.590357 0.37584L166.95356 404.058487c-1.582421 0-3.169706-0.143525-4.752127-0.403815C161.645579 403.571963 157.778927 403.053815 152.357829 403.053815L152.357829 403.053815zM152.357829 403.053815M232.400818 554.556286c0 15.574861 6.414824 31.053634 17.427303 42.067329 11.013695 11.013695 26.493684 17.422438 42.067329 17.422438 15.574861 0 31.05485-6.409959 42.067329-17.422438 11.013695-11.013695 17.422438-26.492468 17.422438-42.067329s-6.408742-31.053634-17.422438-42.067329c-11.012479-11.013695-26.492468-17.422438-42.067329-17.422438-15.573645 0-31.053634 6.408742-42.067329 17.422438C238.815642 523.502652 232.400818 538.981425 232.400818 554.556286L232.400818 554.556286zM232.400818 554.556286M672.638474 554.556286c0 15.574861 6.408742 31.053634 17.422438 42.067329 11.012479 11.013695 26.492468 17.422438 42.067329 17.422438 15.573645 0 31.053634-6.409959 42.067329-17.422438 11.012479-11.013695 17.422438-26.492468 17.422438-42.067329s-6.411175-31.053634-17.422438-42.067329c-11.013695-11.013695-26.493684-17.422438-42.067329-17.422438-15.574861 0-31.05485 6.408742-42.067329 17.422438C679.047216 523.502652 672.638474 538.981425 672.638474 554.556286L672.638474 554.556286zM672.638474 554.556286M765.851677 307.378798c-15.735414 0-28.467757-12.746938-28.467757-28.468973 0-114.418368-101.116792-207.509941-225.38363-207.509941-124.272919 0-225.359303 93.091573-225.359303 207.509941 0 15.722035-12.733559 28.468973-28.468973 28.468973-15.736631 0-28.47019-12.746938-28.47019-28.468973 0-145.819867 126.634995-264.447887 282.298467-264.447887 155.659823 0 282.32036 118.62802 282.32036 264.447887C794.320651 294.631859 781.589524 307.378798 765.851677 307.378798L765.851677 307.378798zM765.851677 307.378798" p-id="14156" fill="#707070"></path></svg>