<?xml version="1.0" standalone="no"?><!DOCTYPE svg PUBLIC "-//W3C//DTD SVG 1.1//EN" "http://www.w3.org/Graphics/SVG/1.1/DTD/svg11.dtd"><svg t="1509940238495" class="icon" style="" viewBox="0 0 1024 1024" version="1.1" xmlns="http://www.w3.org/2000/svg" p-id="6366" xmlns:xlink="http://www.w3.org/1999/xlink" width="200" height="200"><defs><style type="text/css"></style></defs><path d="M242.736 942.992a15.955 15.955 0 0 1-9.408-3.056 16.015 16.015 0 0 1-6.368-15.648l50.064-291.984L64.896 425.52a15.973 15.973 0 0 1-4.048-16.4 16.032 16.032 0 0 1 12.928-10.896l293.184-42.608L498.064 89.968c2.704-5.456 8.272-8.928 14.352-8.928a15.981 15.981 0 0 1 14.352 8.928l131.088 265.648 293.2 42.608c6.032 0.88 11.024 5.104 12.928 10.896a16.006 16.006 0 0 1-4.048 16.4l-212.16 206.784 50.08 291.984c1.024 6-1.44 12.064-6.352 15.648-4.912 3.616-11.488 4.064-16.848 1.216l-262.24-137.824-262.224 137.824a16.256 16.256 0 0 1-7.456 1.84z m-132.304-517.76l194.96 190.016a16.054 16.054 0 0 1 4.608 14.16l-46 268.336 240.976-126.656a15.933 15.933 0 0 1 14.896 0l240.976 126.656-46.016-268.336a16.014 16.014 0 0 1 4.592-14.16l194.96-190.016-269.44-39.152a15.995 15.995 0 0 1-12.048-8.752L512.4 133.2 391.904 377.312c-2.336 4.72-6.832 8-12.048 8.752l-269.424 39.168z" fill="#d81e06" p-id="6367"></path></svg>