<?xml version="1.0" standalone="no"?><!DOCTYPE svg PUBLIC "-//W3C//DTD SVG 1.1//EN" "http://www.w3.org/Graphics/SVG/1.1/DTD/svg11.dtd"><svg t="1509964924380" class="icon" style="" viewBox="0 0 1024 1024" version="1.1" xmlns="http://www.w3.org/2000/svg" p-id="19814" xmlns:xlink="http://www.w3.org/1999/xlink" width="200" height="200"><defs><style type="text/css"></style></defs><path d="M937.02421191 576.17213626h-361.25758849v361.31520829c0 35.21003908-28.55658433 63.73835711-63.76771059 63.73835711-35.21003908 0-63.76662342-28.52831802-63.76662341-63.73835711v-361.31520829h-361.25976283c-35.23939256 0-63.76662342-28.52831802-63.76662341-63.73835711 0-35.1969931 28.53049235-63.73835711 63.76662341-63.7383571h361.2575885v-361.31520827c0-35.1969931 28.55658433-63.73835711 63.76662341-63.73835711 35.21112625 0 63.76771058 28.54245117 63.76771059 63.73835711v361.31629543h361.25758849c35.23939256 0 63.76771058 28.54027684 63.76771058 63.73618278-0.00108717 35.21003908-28.52831802 63.73618278-63.76771058 63.73618278z" fill="#00c9ff" p-id="19815" class="selected"></path></svg>