<?xml version="1.0" standalone="no"?><!DOCTYPE svg PUBLIC "-//W3C//DTD SVG 1.1//EN" "http://www.w3.org/Graphics/SVG/1.1/DTD/svg11.dtd"><svg t="1510304383214" class="icon" style="" viewBox="0 0 1024 1024" version="1.1" xmlns="http://www.w3.org/2000/svg" p-id="9731" xmlns:xlink="http://www.w3.org/1999/xlink" width="200" height="200"><defs><style type="text/css"></style></defs><path d="M143.895425 514.844444L557.176471 102.734641c14.222222-14.222222 14.222222-37.312418 0-51.534641l-12.883661-12.88366c-14.222222-14.222222-37.479739-14.222222-51.70196 0L40.491503 489.077124c-14.222222 14.222222-14.222222 37.312418 0 51.534641l452.099347 450.593464c14.222222 14.222222 37.479739 14.222222 51.70196 0l12.883661-12.88366c14.222222-14.222222 14.222222-37.312418 0-51.534641L143.895425 514.844444z" fill="#bfbfbf" p-id="9732"></path><path d="M948.873203 559.853595H143.895425c-24.930719 0-45.00915-20.245752-45.00915-45.009151 0-24.930719 20.245752-45.00915 45.00915-45.00915h804.977778c24.930719 0 45.00915 20.245752 45.00915 45.00915 0 24.763399-20.245752 45.00915-45.00915 45.009151z" fill="#bfbfbf" p-id="9733"></path></svg>