<?xml version="1.0" standalone="no"?><!DOCTYPE svg PUBLIC "-//W3C//DTD SVG 1.1//EN" "http://www.w3.org/Graphics/SVG/1.1/DTD/svg11.dtd"><svg t="1509940139626" class="icon" style="" viewBox="0 0 1024 1024" version="1.1" xmlns="http://www.w3.org/2000/svg" p-id="6070" xmlns:xlink="http://www.w3.org/1999/xlink" width="200" height="200"><defs><style type="text/css"></style></defs><path d="M512.451278 899.094222L496.972748 886.49016C157.876704 610.309026 66.035996 513.088798 66.035996 355.169115c0-129.83709 105.631806-235.468896 235.468896-235.468896 108.505249 0 169.83813 61.622476 210.946386 107.978247 41.108257-46.355771 102.441137-107.978247 210.946386-107.978247 129.83709 0 235.468896 105.631806 235.468896 235.468896 0 157.919682-91.840708 255.139911-430.936752 531.321045l-15.47853 12.604062zM301.504892 168.745239c-102.783944 0-186.423877 83.639932-186.423877 186.423876 0 135.295406 85.143169 225.739301 397.370263 480.641805 312.227094-254.902504 397.370263-345.345376 397.370263-480.641805 0-102.783944-83.639932-186.423877-186.423877-186.423876-94.13496 0-143.258775 56.033178-182.706205 101.069906l-28.240181 31.721469-28.240181-31.721469c-39.446407-45.037752-88.571245-101.069907-182.706205-101.069906z" p-id="6071" fill="#d81e06"></path></svg>