<?xml version="1.0" standalone="no"?><!DOCTYPE svg PUBLIC "-//W3C//DTD SVG 1.1//EN" "http://www.w3.org/Graphics/SVG/1.1/DTD/svg11.dtd"><svg t="1509966164194" class="icon" style="" viewBox="0 0 1024 1024" version="1.1" xmlns="http://www.w3.org/2000/svg" p-id="20726" xmlns:xlink="http://www.w3.org/1999/xlink" width="200" height="200"><defs><style type="text/css"></style></defs><path d="M952.289772 503.109516 531.525706 96.760764c-5.572926-5.382591-12.757558-8.060583-19.938098-8.079002-0.11154-0.002047-0.223081-0.001023-0.334621-0.002047-0.11154 0.001023-0.223081 0-0.334621 0.002047-7.181563 0.01842-14.365172 2.696412-19.938098 8.079002L70.216201 503.109516c-11.446703 11.053754-11.763928 29.294187-0.710175 40.74089 11.053754 11.446703 29.294187 11.763928 40.74089 0.710175l57.783031-55.803957 0 354.843704c0 45.863561 37.311791 83.175351 83.175351 83.175351l89.973174 0 45.520753 0 11.874445 0c14.431687-1.568728 25.664519-13.789051 25.664519-28.638247 0-0.059352-0.004093-0.118704-0.004093-0.178055 0-0.059352 0.004093-0.11768 0.004093-0.178055l0-51.100842c0-1.026376-0.055259-2.038426-0.160659-3.037173L424.077531 695.732581 609.423867 695.732581c15.011902 0 27.181059-12.169157 27.181059-27.181059 0-15.011902-12.169157-27.181059-27.181059-27.181059L393.636219 641.370463c-15.011902 0-27.181059 12.169157-27.181059 27.181059 0 0.273223 0.01228 0.544399 0.020466 0.815575-0.007163 0.272199-0.020466 0.542352-0.020466 0.815575l0 198.967564L251.205299 869.150236c-14.08888 0-25.550932-11.462053-25.550932-25.550932L225.654366 433.106162l285.59862-275.813766 268.402983 259.208577-0.588401 0 0 427.099355c0 14.08888-11.462053 25.550932-25.550932 25.550932L644.408659 869.151259l0 0.173962-5.980201 0c-15.912411 0-28.812209 12.899798-28.812209 28.812209 0 15.912411 12.899798 28.812209 28.812209 28.812209l83.015715 0c1.064238 0 2.113127-0.062422 3.14769-0.173962l28.92682 0c45.862537 0 83.175351-37.311791 83.175351-83.175351L836.694033 471.582475l75.566046 72.977082c11.446703 11.053754 29.686113 10.736529 40.74089-0.710175C964.0537 532.403702 963.735451 514.163269 952.289772 503.109516z" p-id="20727" fill="#6c6c6c"></path></svg>