<?xml version="1.0" standalone="no"?><!DOCTYPE svg PUBLIC "-//W3C//DTD SVG 1.1//EN" "http://www.w3.org/Graphics/SVG/1.1/DTD/svg11.dtd"><svg t="1510052221873" class="icon" style="" viewBox="0 0 1024 1024" version="1.1" xmlns="http://www.w3.org/2000/svg" p-id="16575" xmlns:xlink="http://www.w3.org/1999/xlink" width="200" height="200"><defs><style type="text/css"></style></defs><path d="M972.790688 505.9584c-8.473999 7.477298-22.430872 7.477298-30.903847 0l-198.883653-170.47258c-1.49505-0.9967-2.492774-1.9934-3.987824-3.489474l-85.23629-73.272817c-1.49505-0.9967-2.491751-1.9934-3.987824-3.489474L511.220241 136.602168 82.048691 505.9584c-8.473999 7.477298-22.430872 7.477298-30.903847 0-8.473999-7.477298-8.473999-18.941398 0-26.418696L493.773893 99.717096c0.49835-0.9967 0.9967-1.9934 1.9934-2.492774 4.486174-3.987824 9.969049-5.482875 15.950274-5.482875 5.981225 0 11.464099 1.49505 15.950274 5.482875 0.9967 0.9967 1.49505 1.9934 1.9934 2.492774l115.641787 99.193163 0-49.845245 0 0c0-10.467399 9.969049-18.941398 22.430872-18.941398l89.224114 0c5.981225 0 11.464099 1.9934 15.950274 5.482875 3.987824 3.489474 6.479575 7.975649 6.479575 13.458523L779.387863 313.554322l193.899128 165.986405C981.264687 487.017002 981.264687 498.482125 972.790688 505.9584zM734.529189 168.005388l-44.36237 0 0 68.786643 44.36237 38.381146L734.529189 168.005388zM200.681602 473.061153c12.461823 0 22.430872 8.473999 22.430872 18.941398l0 362.378308c0 20.934798 19.938098 38.381146 44.36237 38.381146l133.586484 0 0 0L401.061328 645.027759c0-10.467399 9.969049-18.941398 22.430872-18.941398l177.948855 0c12.461823 0 22.430872 8.473999 22.430872 18.941398l0 247.733221 0 0 133.586484 0c24.424272 0 44.36237-16.946974 44.36237-38.381146L801.820782 492.00255c0-10.467399 9.969049-18.941398 22.430872-18.941398s22.430872 8.473999 22.430872 18.941398l0 362.378308c0 42.36897-39.876196 76.263941-89.224114 76.263941L267.474844 930.644799c-49.346895 0-89.224114-34.393321-89.224114-76.263941L178.25073 492.00255C178.25073 481.534128 188.220802 473.061153 200.681602 473.061153zM579.010183 892.76098 579.010183 663.969157 445.423699 663.969157l0 228.791823 0 0L579.010183 892.76098 579.010183 892.76098z" p-id="16576" fill="#00c9ff"></path></svg>