<?xml version="1.0" standalone="no"?><!DOCTYPE svg PUBLIC "-//W3C//DTD SVG 1.1//EN" "http://www.w3.org/Graphics/SVG/1.1/DTD/svg11.dtd"><svg t="1509966989896" class="icon" style="" viewBox="0 0 1024 1024" version="1.1" xmlns="http://www.w3.org/2000/svg" p-id="34694" xmlns:xlink="http://www.w3.org/1999/xlink" width="200" height="200"><defs><style type="text/css"></style></defs><path d="M956.104145 378.723577c0-150.848637-144.932903-273.14703-323.728032-273.14703-133.532249 0-248.13231 68.24736-297.609165 165.67839 15.965623-2.065032 32.206516-3.378957 48.764634-3.585665 48.093345-72.377424 141.591809-121.625058 248.844531-121.625058 156.192342 0 283.263435 104.385419 283.263435 232.680387 0 62.48717-30.113855 121.240295-84.806501 165.509545-12.605086 10.214642-17.922185 26.990724-13.45443 42.570561l16.832364 58.881039-83.657328-32.174793c-1.64036 13.701047-4.663206 27.03882-8.299013 40.168862l153.151076 58.891272-39.122019-136.889717C917.712767 525.985526 956.104145 456.19809 956.104145 378.723577M389.577275 307.906695c-178.777733 0-323.729056 122.298394-323.729056 273.14703 0 77.493955 38.410821 147.262972 99.821473 196.956767L126.547673 914.90021l181.465958-69.778226c26.101471 5.730515 53.309136 9.079796 81.564667 9.079796 178.778756 0 323.729056-122.288161 323.729056-273.14703C713.307354 430.205089 568.356031 307.906695 389.577275 307.906695M389.577275 813.734112c-23.730471 0-48.250934-2.727111-72.910567-8.130168-2.844791-0.642636-5.7694-0.948605-8.654101-0.948605-4.940522 0-9.880021 0.908696-14.542204 2.687202l-105.730043 40.673351 16.814967-58.882062c4.465708-15.59928-0.829901-32.354895-13.43601-42.550095-54.692646-44.289716-84.805478-103.041818-84.805478-165.530011 0-128.294968 127.069047-232.680387 283.263435-232.680387 156.193365 0 283.263435 104.385419 283.263435 232.680387C672.84071 709.357903 545.77064 813.734112 389.577275 813.734112" p-id="34695" fill="#00c9ff"></path></svg>