<?xml version="1.0" standalone="no"?><!DOCTYPE svg PUBLIC "-//W3C//DTD SVG 1.1//EN" "http://www.w3.org/Graphics/SVG/1.1/DTD/svg11.dtd"><svg t="1510037312817" class="icon" style="" viewBox="0 0 1024 1024" version="1.1" xmlns="http://www.w3.org/2000/svg" p-id="13451" xmlns:xlink="http://www.w3.org/1999/xlink" width="200" height="200"><defs><style type="text/css"></style></defs><path d="M819.789 812.977l0 158.697-156.847-96.562c-21.75 3.552-44.075 5.628-67.001 5.628-107.742 0-204.254-41.231-270.86-106.344 10.971 0.628 21.874 1.421 33.022 1.421 15.63 0 31.041-0.765 46.288-1.994 52.587 36.204 119.083 57.954 191.548 57.954 24.975 0 49.131-2.842 72.411-7.705l54.486 36.342c-0.055 0.027-0.108 0.054-0.164 0.082l41.153 27.24 0-99.131c84.16-47.434 139.904-129.351 139.904-222.635 0-58.993-22.516-113.312-60.17-157.413 2.487-17.214 4.208-34.633 4.208-52.435 0-8.142-0.874-16.08-1.421-24.1 69.679 57.982 113.344 139.666 113.344 230.45 0.001 101.836-54.868 192.252-139.903 250.505zM428.057 712.862c-22.925 0-45.264-2.076-67.001-5.629l-156.845 96.562 0-158.669c-85.035-58.281-139.904-148.697-139.904-250.533 0-175.774 162.858-318.269 363.75-318.269 200.894 0 363.75 142.494 363.75 318.269 0 175.774-162.856 318.269-363.75 318.269zM428.057 132.285c-169.988 0-307.789 119.024-307.789 265.807 0 93.27 55.744 175.174 139.904 222.635l0 99.131 41.151-27.241c-0.069-0.027-0.123-0.055-0.177-0.082l54.514-36.341c23.267 4.864 47.422 7.704 72.398 7.704 169.988 0 307.789-118.995 307.789-265.807 0-146.783-137.801-265.806-307.789-265.806zM609.933 440.061c-23.172 0-41.972-18.785-41.972-41.97 0-23.171 18.8-41.97 41.972-41.97 23.173 0 41.972 18.799 41.972 41.97-0.001 23.184-18.8 41.97-41.972 41.97zM442.048 440.061c-23.185 0-41.972-18.785-41.972-41.97 0-23.171 18.786-41.97 41.972-41.97s41.972 18.799 41.972 41.97c0 23.184-18.786 41.97-41.972 41.97zM274.163 440.061c-23.185 0-41.971-18.785-41.971-41.97 0-23.171 18.786-41.97 41.971-41.97s41.972 18.799 41.972 41.97c-0.001 23.184-18.787 41.97-41.972 41.97z" p-id="13452" fill="#00c9ff"></path></svg>