<?xml version="1.0" standalone="no"?><!DOCTYPE svg PUBLIC "-//W3C//DTD SVG 1.1//EN" "http://www.w3.org/Graphics/SVG/1.1/DTD/svg11.dtd"><svg t="1509967850860" class="icon" style="" viewBox="0 0 1024 1024" version="1.1" xmlns="http://www.w3.org/2000/svg" p-id="38106" xmlns:xlink="http://www.w3.org/1999/xlink" width="200" height="200"><defs><style type="text/css"></style></defs><path d="M897.219048 945.980952l0-7.314286c-21.942857-180.419048-190.171429-326.704762-375.466667-326.704762-185.295238 0-353.52381 146.285714-375.466667 326.704762l0 7.314286L97.52381 945.980952l0-7.314286C114.590476 780.190476 226.742857 636.342857 375.466667 582.704762l4.87619-2.438095-4.87619-2.438095c-75.580952-48.761905-121.904762-129.219048-121.904762-216.990476 0-143.847619 124.342857-270.628571 268.190476-270.628571 141.409524 0 268.190476 126.780952 268.190476 270.628571 0 87.771429-46.32381 168.228571-121.904762 216.990476l-4.87619 2.438095 4.87619 2.438095c148.72381 53.638095 260.87619 197.485714 277.942857 355.961905l0 7.314286L897.219048 945.980952 897.219048 945.980952zM521.752381 138.971429c-109.714286 0-219.428571 109.714286-219.428571 221.866667 0 117.028571 114.590476 202.361905 219.428571 202.361905s219.428571-87.771429 219.428571-202.361905C741.180952 248.685714 631.466667 138.971429 521.752381 138.971429L521.752381 138.971429z" p-id="38107" fill="#6c6c6c"></path></svg>