<?xml version="1.0" standalone="no"?><!DOCTYPE svg PUBLIC "-//W3C//DTD SVG 1.1//EN" "http://www.w3.org/Graphics/SVG/1.1/DTD/svg11.dtd"><svg t="1510023381776" class="icon" style="" viewBox="0 0 1303 1024" version="1.1" xmlns="http://www.w3.org/2000/svg" p-id="11270" xmlns:xlink="http://www.w3.org/1999/xlink" width="254.4921875" height="200"><defs><style type="text/css"></style></defs><path d="M172.218182 139.636364c0-79.127273 60.509091-139.636364 139.636363-139.636364h851.781819c79.127273 0 139.636364 60.509091 139.636363 139.636364v744.727272c0 79.127273-60.509091 139.636364-139.636363 139.636364h-851.781819c-79.127273 0-139.636364-60.509091-139.636363-139.636364v-744.727272z m0 190.836363v395.636364l-172.218182-200.145455 172.218182-195.490909z" fill="#56A4FF" p-id="11271"></path><path d="M372.363636 512a139.636364 139.636364 0 1 0 279.272728 0 139.636364 139.636364 0 1 0-279.272728 0Z" fill="#FFFFFF" p-id="11272"></path><path d="M977.454545 512m-139.636363 0a139.636364 139.636364 0 1 0 279.272727 0 139.636364 139.636364 0 1 0-279.272727 0Z" fill="#FFFFFF" p-id="11273"></path></svg>