<?xml version="1.0" standalone="no"?><!DOCTYPE svg PUBLIC "-//W3C//DTD SVG 1.1//EN" "http://www.w3.org/Graphics/SVG/1.1/DTD/svg11.dtd"><svg t="1510210714562" class="icon" style="" viewBox="0 0 1103 1024" version="1.1" xmlns="http://www.w3.org/2000/svg" p-id="2540" xmlns:xlink="http://www.w3.org/1999/xlink" width="215.4296875" height="200"><defs><style type="text/css"></style></defs><path d="M567.443 82.155c-11.553-5.682-25.262-4.13-35.334 4.031-0.471 0.396-49.446 40.14-103.508 80.776-94.043 70.733-121.427 82.527-126.985 84.41h-133.25c-0.674 0-1.313 0.1-1.987 0.1H106.22c-15.157 0-27.452 12.553-27.452 28.048v447.654c0 15.494 12.295 28.048 27.452 28.048h217.188c5.457 2.015 31.326 14.24 114.758 83.716 48.538 40.405 92.124 79.884 92.561 80.28 6.232 5.65 14.181 8.624 22.198 8.624 4.614 0 9.296-0.992 13.675-3.007 11.991-5.517 19.705-17.675 19.705-31.12V112.88c0.033-13.116-7.31-25.042-18.863-30.725z m-35.67 757.18c-14.787-12.752-31.292-26.793-48.2-40.735-111.424-92.14-138.977-99.871-157.671-99.871-0.37 0-0.708 0.099-1.078 0.099-0.37 0-0.707-0.1-1.078-0.1H157.015c-19.233 0-23.68-5.55-23.68-25.273V329.901c0-13.38 1.55-21.771 17.348-21.771h151.775c18.19 0 46.146-7.632 168.011-98.781 21.726-16.255 42.946-32.575 61.304-46.913v676.899z m328.275-336.22c0-86.954-46.18-162.807-114.826-203.608-3.099-1.685-10.475-4.922-15.595-4.922-15.225 0-27.586 12.62-27.586 28.18 0 10.44 5.456 19.757 13.709 24.613 53.05 30.79 88.89 88.97 88.89 155.737 0 67.958-37.052 127.028-91.686 157.39-7.95 4.955-13.204 13.941-13.204 24.15 0 15.56 12.362 28.18 27.586 28.18 6.468 0.067 14.147-3.832 14.147-3.832 70.735-40.272 118.565-117.348 118.565-205.888z m-31.83-346.89c-5.12-3.139-10.24-5.683-16.438-5.683-15.157 0-27.452 12.555-27.452 28.049 0 11.167 6.501 20.12 15.663 25.24 100.813 60.062 168.617 171.563 168.617 299.35 0 127.69-67.703 239.124-168.415 299.218-8.825 4.89-16.437 14.173-16.437 25.637 0 15.495 12.294 28.049 27.451 28.049 6.097 0 10.947-2.379 16.236-5.517 116.98-69.709 195.664-199.116 195.664-347.387 0-148.006-78.346-277.149-194.89-346.956z" fill="#707070" p-id="2541"></path></svg>