<?xml version="1.0" standalone="no"?><!DOCTYPE svg PUBLIC "-//W3C//DTD SVG 1.1//EN" "http://www.w3.org/Graphics/SVG/1.1/DTD/svg11.dtd"><svg t="1509602491695" class="icon" style="" viewBox="0 0 1024 1024" version="1.1" xmlns="http://www.w3.org/2000/svg" p-id="7978" xmlns:xlink="http://www.w3.org/1999/xlink" width="200" height="200"><defs><style type="text/css"></style></defs><path d="M899.278417 561.793056 309.392536 561.793056l316.909743 316.909743c14.603603 14.603603 14.603603 38.277792 0 52.855812l-17.618263 17.643845c-14.57802 14.57802-38.252209 14.57802-52.855812 0L150.526295 543.900547c-8.721639-8.721639-11.587919-20.609387-9.868765-31.94762-1.719154-11.363815 1.146103-23.225981 9.868765-31.972179L555.828204 74.703399c14.603603-14.603603 38.277792-14.603603 52.855812 0l17.618263 17.618263c14.603603 14.603603 14.603603 38.252209 0 52.855812L309.392536 462.1128l589.885881 0c20.658506 0 37.380352 16.721847 37.380352 37.380352l0 24.920576C936.658769 545.04665 919.936923 561.793056 899.278417 561.793056z" p-id="7979" fill="#ffffff"></path></svg>