<?xml version="1.0" standalone="no"?><!DOCTYPE svg PUBLIC "-//W3C//DTD SVG 1.1//EN" "http://www.w3.org/Graphics/SVG/1.1/DTD/svg11.dtd"><svg t="1509602007290" class="icon" style="" viewBox="0 0 1024 1024" version="1.1" xmlns="http://www.w3.org/2000/svg" p-id="6161" xmlns:xlink="http://www.w3.org/1999/xlink" width="200" height="200"><defs><style type="text/css"></style></defs><path d="M635.982843 612.203166c-5.539389-1.802042-40.502113-17.566074-18.655655-83.98888l-0.302911 0c56.945287-58.640562 100.470373-153.060001 100.470373-245.983367 0-142.900617-95.035366-217.781048-205.458832-217.781048-110.495101 0-204.983998 74.880431-204.983998 217.781048 0 93.298919 43.285622 188.090842 100.571684 246.595304 22.322315 58.574047-17.602629 80.31828-25.959298 83.376942C266.006308 654.025691 130.336818 730.267119 130.336818 805.523103c0 20.317745 0 8.019651 0 28.201296 0 102.536304 198.796829 125.846196 382.78375 125.846196 184.257084 0 380.542615-23.309892 380.542615-125.846196 0-20.182668 0-7.883551 0-28.201296C893.663182 727.991286 757.314188 652.362818 635.982843 612.203166z" p-id="6162" fill="#ffffff"></path></svg>